<?xml version="1.0" encoding="iso-8859-1"?>
<!-- Generator: Adobe Illustrator 18.0.0, SVG Export Plug-In . SVG Version: 6.00 Build 0)  -->
<!DOCTYPE svg PUBLIC "-//W3C//DTD SVG 1.1//EN" "http://www.w3.org/Graphics/SVG/1.1/DTD/svg11.dtd">
<svg version="1.1" id="Capa_1" xmlns="http://www.w3.org/2000/svg" xmlns:xlink="http://www.w3.org/1999/xlink" x="0px" y="0px"
	 viewBox="0 0 297 297" style="enable-background:new 0 0 297 297;" xml:space="preserve">
<g>
	<path d="M148.5,0C66.617,0,0,66.617,0,148.5S66.617,297,148.5,297S297,230.383,297,148.5S230.383,0,148.5,0z M276.327,138.363
		h-74.89c2.451-30.433,15.871-58.992,37.83-80.347C260.166,78.979,273.871,107.115,276.327,138.363z M158.637,138.363V20.673
		c24.346,1.913,46.798,10.66,65.445,24.312c-25.047,24.965-40.191,58.134-42.64,93.378H158.637z M138.363,138.363h-22.805
		c-2.448-35.244-17.593-68.413-42.64-93.378c18.647-13.652,41.099-22.399,65.445-24.312V138.363z M138.363,158.637v117.69
		c-24.346-1.913-46.798-10.66-65.445-24.312c25.047-24.965,40.191-58.134,42.64-93.378H138.363z M158.637,158.637h22.805
		c2.448,35.244,17.593,68.413,42.64,93.378c-18.647,13.652-41.099,22.399-65.445,24.312V158.637z M57.732,58.016
		c21.96,21.356,35.38,49.915,37.83,80.347h-74.89C23.129,107.115,36.834,78.979,57.732,58.016z M20.673,158.637h74.89
		c-2.451,30.432-15.871,58.992-37.83,80.347C36.834,218.021,23.129,189.885,20.673,158.637z M239.268,238.984
		c-21.96-21.356-35.38-49.915-37.83-80.347h74.89C273.871,189.885,260.166,218.021,239.268,238.984z"/>
</g>
<g>
</g>
<g>
</g>
<g>
</g>
<g>
</g>
<g>
</g>
<g>
</g>
<g>
</g>
<g>
</g>
<g>
</g>
<g>
</g>
<g>
</g>
<g>
</g>
<g>
</g>
<g>
</g>
<g>
</g>
</svg>
