<?xml version="1.0" encoding="iso-8859-1"?>
<!-- Generator: Adobe Illustrator 16.0.0, SVG Export Plug-In . SVG Version: 6.00 Build 0)  -->
<!DOCTYPE svg PUBLIC "-//W3C//DTD SVG 1.1//EN" "http://www.w3.org/Graphics/SVG/1.1/DTD/svg11.dtd">
<svg xmlns="http://www.w3.org/2000/svg" xmlns:xlink="http://www.w3.org/1999/xlink" version="1.1" id="Capa_1" x="0px" y="0px" width="512px" height="512px" viewBox="0 0 159.138 159.138" style="enable-background:new 0 0 159.138 159.138;" xml:space="preserve">
<g>
	<g>
		<g>
			<path d="M76.644,89.191l-29-36.833c-0.832-1.057-0.984-2.497-0.394-3.705c0.524-1.07,21.692-30.71,103.163-25.96     c1.93,0.112,3.49,1.587,3.479,3.52c-0.012,1.933-1.633,3.576-3.521,3.48c-66.182-3.375-90.819,15.384-95.566,20.448     l27.338,34.719c1.193,1.52,1.021,3.84-0.586,4.916C79.443,91.193,77.335,90.07,76.644,89.191z" fill="#ffd740"/>
			<path d="M55.808,158.053c-0.901-0.988-22-24.402-15.556-42.434c3.309-9.254,12.943-15.104,28.638-17.391     c16.408-2.392,26.408-7.224,28.92-13.979c2.831-7.621-4.479-16.171-4.555-16.257l-17.55-21.06     c-1.237-1.485-1.037-3.692,0.448-4.93c1.485-1.237,3.69-1.037,4.928,0.448l17.5,21c0.357,0.406,10.059,11.652,5.805,23.194     c-3.483,9.457-15.088,15.686-34.488,18.51c-12.93,1.883-20.686,6.197-23.054,12.822c-4.185,11.707,8.785,29.49,14.136,35.355     c1.303,1.428,1.149,3.588-0.227,4.943C59.068,159.943,56.499,158.809,55.808,158.053z" fill="#ffd740"/>
			<path d="M139.945,153.861l-47-46c-1.381-1.352-1.405-3.567-0.053-4.949c1.353-1.383,3.566-1.403,4.947-0.053l47,46     c1.382,1.353,1.652,3.527,0.312,4.918C142.818,156.193,140.628,154.527,139.945,153.861z" fill="#ffd740"/>
			<path d="M10.929,63.964c-8.348-7.761-5.078-21.523-4.935-22.105c0.462-1.877,2.359-3.025,4.235-2.562     c1.874,0.461,3.021,2.353,2.563,4.227c-0.035,0.146-2.413,10.399,2.919,15.33c4.191,3.877,12.7,3.88,24.599,0.013     c1.837-0.597,3.812,0.408,4.411,2.247c0.597,1.838-0.419,3.783-2.247,4.41C21.568,72.694,14.361,67.153,10.929,63.964z" fill="#ffd740"/>
		</g>
		<path d="M53.256,32.334c8.914,0,16.166-7.252,16.166-16.167S62.17,0,53.256,0c-8.915,0-16.168,7.252-16.168,16.167    S44.34,32.334,53.256,32.334z M53.256,7c5.055,0,9.166,4.112,9.166,9.167c0,5.055-4.111,9.167-9.166,9.167    s-9.168-4.112-9.168-9.167C44.088,11.111,48.201,7,53.256,7z" fill="#ffd740"/>
	</g>
</g>
<g>
</g>
<g>
</g>
<g>
</g>
<g>
</g>
<g>
</g>
<g>
</g>
<g>
</g>
<g>
</g>
<g>
</g>
<g>
</g>
<g>
</g>
<g>
</g>
<g>
</g>
<g>
</g>
<g>
</g>
</svg>
